<svg width="80" height="106" viewBox="0 0 80 106" fill="none" xmlns="http://www.w3.org/2000/svg">
<path d="M60.6754 0H7.32534C3.74317 0 0.826172 2.91903 0.826172 6.50052V99.4983C0.826172 103.085 3.74317 106 7.32534 106H72.6743C76.2596 106 79.1739 103.085 79.1739 99.4983V20.1001L60.6754 0ZM62.2093 9.72724L70.3175 18.5393H62.2093V9.72724ZM73.7154 99.4986C73.7154 100.071 73.2466 100.541 72.6713 100.541H7.32534C6.75095 100.541 6.2849 100.071 6.2849 99.4986V6.50052C6.2849 5.92658 6.75095 5.46144 7.32534 5.46144H56.7479V21.2698C56.7479 22.7749 57.9739 23.9951 59.48 23.9951H73.7154V99.4986ZM15.9142 29.0326H62.2677C63.3969 29.0326 64.3127 29.9485 64.3127 31.0777C64.3127 32.2068 63.3969 33.1227 62.2677 33.1227H15.9142C14.7852 33.1227 13.8691 32.2068 13.8691 31.0777C13.8691 29.9487 14.7852 29.0326 15.9142 29.0326ZM64.3127 44.8205C64.3127 45.9494 63.3969 46.8655 62.2677 46.8655H15.9142C14.7852 46.8655 13.8691 45.9496 13.8691 44.8205C13.8691 43.6913 14.7852 42.7754 15.9142 42.7754H62.2677C63.3969 42.7754 64.3127 43.6915 64.3127 44.8205ZM64.3127 58.1132C64.3127 59.2424 63.3969 60.1582 62.2677 60.1582H15.9142C14.7852 60.1582 13.8691 59.2424 13.8691 58.1132C13.8691 56.984 14.7852 56.0681 15.9142 56.0681H62.2677C63.3969 56.0681 64.3127 56.984 64.3127 58.1132ZM64.3127 71.6323C64.3127 72.7615 63.3969 73.6774 62.2677 73.6774H15.9142C14.7852 73.6774 13.8691 72.7615 13.8691 71.6323C13.8691 70.5031 14.7852 69.5873 15.9142 69.5873H62.2677C63.3969 69.5873 64.3127 70.5031 64.3127 71.6323Z" fill="white"/>
</svg>
