<svg width="104" height="27" viewBox="0 0 104 27" fill="none" xmlns="http://www.w3.org/2000/svg">
<g clip-path="url(#clip0_2_2)">
<rect width="103.5" height="27" fill="white"/>
<path d="M7.26 3.932H3.408V13.616H7.008C8.736 13.616 10.224 13.268 11.472 12.572C12.72 11.876 13.344 10.604 13.344 8.756C13.344 6.836 12.78 5.552 11.652 4.904C10.524 4.256 9.06 3.932 7.26 3.932ZM15.072 26L9.42 15.812C9.012 15.86 8.592 15.896 8.16 15.92C7.752 15.944 7.32 15.956 6.864 15.956H3.408V26H0.6V1.52H7.26C9.828 1.52 11.976 2.072 13.704 3.176C15.432 4.256 16.296 6.08 16.296 8.648C16.272 10.304 15.852 11.66 15.036 12.716C14.244 13.748 13.212 14.528 11.94 15.056L18.204 26H15.072ZM22.1949 13.868C22.1949 10.244 23.1189 7.208 24.9669 4.76C26.8149 2.288 29.5149 1.016 33.0669 0.943999C36.8349 0.943999 39.5589 2.216 41.2389 4.76C42.9429 7.28 43.7949 10.22 43.7949 13.58C43.7949 17.084 42.8589 20.108 40.9869 22.652C39.1389 25.172 36.4389 26.456 32.8869 26.504C29.1189 26.504 26.3949 25.244 24.7149 22.724C23.0349 20.18 22.1949 17.228 22.1949 13.868ZM25.1829 13.832C25.1829 16.664 25.7949 19.076 27.0189 21.068C28.2429 23.06 30.1749 24.056 32.8149 24.056C35.2389 24.056 37.1589 23.108 38.5749 21.212C40.0149 19.292 40.7349 16.76 40.7349 13.616C40.7349 10.784 40.1229 8.384 38.8989 6.416C37.6749 4.448 35.7429 3.464 33.1029 3.464C30.7029 3.464 28.7829 4.436 27.3429 6.38C25.9029 8.3 25.1829 10.784 25.1829 13.832ZM83.8492 26V1.52H92.0932C95.8612 1.52 98.5852 2.696 100.265 5.048C101.945 7.4 102.785 10.256 102.785 13.616C102.785 17.12 101.849 20.06 99.9772 22.436C98.1292 24.812 95.4172 26 91.8412 26H83.8492ZM92.2012 3.968H86.6932V23.624H91.8772C94.3012 23.624 96.2572 22.748 97.7452 20.996C99.2332 19.244 99.9772 16.796 99.9772 13.652C99.9772 10.844 99.3412 8.528 98.0692 6.704C96.7972 4.88 94.8412 3.968 92.2012 3.968Z" fill="black"/>
<line x1="67.9806" y1="0.803884" x2="72.9806" y2="25.8039" stroke="black" stroke-width="2"/>
<line x1="55.9874" y1="0.858003" x2="51.9874" y2="25.858" stroke="black" stroke-width="2"/>
<line x1="62" y1="26" x2="62" y2="1" stroke="black" stroke-width="2" stroke-dasharray="2 2"/>
</g>
<defs>
<clipPath id="clip0_2_2">
<rect width="103.5" height="27" fill="white"/>
</clipPath>
</defs>
</svg>
